<?xml version="1.0" encoding="UTF-8"?>
<svg width="1782px" height="797px" viewBox="0 0 1782 797" version="1.1" xmlns="http://www.w3.org/2000/svg" xmlns:xlink="http://www.w3.org/1999/xlink">
    <title>Untitled 6</title>
    <defs>
        <linearGradient x1="50%" y1="0%" x2="50%" y2="100%" id="linearGradient-1">
            <stop stop-color="#5864FF" offset="0%"></stop>
            <stop stop-color="#6A74FF" offset="100%"></stop>
        </linearGradient>
    </defs>
    <g id="Page-1" stroke="none" stroke-width="1" fill="none" fill-rule="evenodd">
        <g id="hero-bg" transform="translate(0.000806, 0.000000)" fill-rule="nonzero">
            <path d="M1771.22719,0 C1827.52719,272.618 1640.03819,364.024 1461.09719,505.374 C1113.53619,779.333 957.527194,519.843 395.297194,759.047 C-166.932806,998.251 35.465194,0 35.465194,0 L1771.22719,0 Z" id="Path" fill="#5864FF"></path>
            <path d="M173.315194,1.64 C131.915194,187.354 269.774194,249.621 401.342194,345.91 C656.890194,532.534 771.598194,355.766 1184.98519,518.71 C1598.37219,681.654 1449.55519,1.64 1449.55519,1.64 L173.315194,1.64 Z" id="Path" fill="url(#linearGradient-1)"></path>
        </g>
        <path d="M927.235276,777.599035 C813.808027,719.905257 793.351238,545.203298 803.579633,386.570768 C813.808027,227.938238 973.73482,153.625895 1078.16753,127.044885 C1182.60025,100.463876 1345.93275,100.463876 1502.59304,100.72201 C1659.25333,100.980144 1708.19635,127.502175 1721.39103,209.991877 C1734.5857,292.481578 1675.77918,314.718869 1633.20281,341.92812 C1611.015,356.107666 1414.9961,452.840844 1329.60409,517.973015 C1266.36541,562.319693 1206.96132,602.674895 1182.60025,632.959766 C1093.27794,744.002263 1093.27794,744.002263 1093.27794,744.002263 C1093.27794,744.002263 1040.66252,835.292814 927.235276,777.599035 Z" id="Path-2" fill="#D8D8D8" opacity="0.452972412"></path>
    </g>
</svg>