<?xml version="1.0" encoding="UTF-8"?>
<svg width="96px" height="103px" viewBox="0 0 96 103" version="1.1" xmlns="http://www.w3.org/2000/svg" xmlns:xlink="http://www.w3.org/1999/xlink">
    <title>Logos-06</title>
    <defs>
        <linearGradient x1="-0.0547008547%" y1="50.0823875%" x2="99.9883547%" y2="50.0823875%" id="linearGradient-1">
            <stop stop-color="#1468FF" offset="0%"></stop>
            <stop stop-color="#1468FF" offset="0.2562831%"></stop>
            <stop stop-color="#1400C3" offset="100%"></stop>
        </linearGradient>
        <linearGradient x1="0.117485549%" y1="50.0557692%" x2="100.06026%" y2="50.0557692%" id="linearGradient-2">
            <stop stop-color="#1468FF" offset="0%"></stop>
            <stop stop-color="#1468FF" offset="0.2562831%"></stop>
            <stop stop-color="#1400C3" offset="100%"></stop>
        </linearGradient>
        <linearGradient x1="-0.108617021%" y1="50.0384415%" x2="99.8567021%" y2="50.0384415%" id="linearGradient-3">
            <stop stop-color="#1468FF" offset="0%"></stop>
            <stop stop-color="#1468FF" offset="0.2562831%"></stop>
            <stop stop-color="#1400C3" offset="100%"></stop>
        </linearGradient>
        <linearGradient x1="-0.0598654709%" y1="50.276706%" x2="99.8914798%" y2="50.276706%" id="linearGradient-4">
            <stop stop-color="#1468FF" offset="0%"></stop>
            <stop stop-color="#1468FF" offset="0.2562831%"></stop>
            <stop stop-color="#1400C3" offset="100%"></stop>
        </linearGradient>
    </defs>
    <g id="Page-1" stroke="none" stroke-width="1" fill="none" fill-rule="evenodd">
        <g id="Logos-06" transform="translate(0.500000, 0.283580)" fill-rule="nonzero">
            <path d="M12.3,76.7164198 C14.9,77.6164198 17.8,78.3164198 21.3,78.6164198 C22,78.7164198 22.7,78.7164198 23.4,78.7164198 C26,78.7164198 28.5,78.3164198 31,77.5164198 C33.5,76.7164198 36,75.5164198 38.5,74.0164198 C43.6,71.1164198 48.8,66.9164198 54.5,62.5164198 C58.3,59.6164198 62.3,56.6164198 66.6,53.9164198 C72.4,50.3164198 78.8,47.1164198 86.1,45.3164198 C88.6,44.7164198 91.3,44.2164198 94,43.9164198 C92.4,38.2164198 88.6,33.0164198 82.8,29.7164198 L79,27.6164198 C78.4,27.9164198 77.8,28.1164198 77.3,28.4164198 C71,31.5164198 65.3,35.7164198 59.7,40.1164198 C56,43.0164198 52.3,46.1164198 48.5,48.9164198 C43.5,52.6164198 38.2,56.0164198 32.3,58.0164198 C28.9,59.1164198 25.3,59.8164198 21.5,59.8164198 C20.7,59.8164198 19.9,59.8164198 19.2,59.7164198 C14.4,59.4164198 10.1,58.4164198 6.3,56.9164198 C4.2,56.1164198 2.2,55.1164198 0.4,54.0164198 L0.5,68.9164198 C0.8,69.2164198 1.1,69.5164198 1.4,69.8164198 C4.3,72.7164198 7.8,75.1164198 12.3,76.7164198 Z" id="Path" fill="url(#linearGradient-1)"></path>
            <path d="M27.3,28.8164198 L27.3,28.8164198 C24.9,29.1164198 22.6,29.2164198 20.4,29.2164198 C15.9,29.2164198 11.8,28.6164198 8.1,27.6164198 C5.2,26.8164198 2.5,25.8164198 0,24.6164198 L0.2,42.2164198 C3.1,44.8164198 6.5,47.0164198 10.8,48.5164198 C13.4,49.4164198 16.4,50.0164198 19.8,50.3164198 C20.4,50.3164198 20.9,50.4164198 21.5,50.4164198 C24.2,50.4164198 26.7,49.9164198 29.2,49.1164198 C31.7,48.3164198 34.2,47.1164198 36.8,45.5164198 C41.9,42.4164198 47.1,38.1164198 52.8,33.6164198 C56.6,30.6164198 60.6,27.5164198 64.9,24.7164198 C66.3,23.8164198 67.7,22.9164198 69.2,22.1164198 L59.2,16.5164198 L54.8,14.0164198 C53.7,15.1164198 52.5,16.2164198 51.3,17.3164198 C48.2,20.0164198 44.9,22.5164198 41.2,24.4164198 C37.1,26.6164198 32.5,28.2164198 27.3,28.8164198 Z" id="Path" fill="url(#linearGradient-2)"></path>
            <path d="M78.7,57.9164198 C72.5,60.9164198 66.8,64.9164198 61.2,69.2164198 C57.5,72.0164198 53.8,75.0164198 50.1,77.6164198 C45.1,81.2164198 39.9,84.4164198 34,86.3164198 C30.7,87.4164198 27.1,88.0164198 23.4,88.0164198 C22.4,88.0164198 21.5,88.0164198 20.5,87.9164198 C15.7,87.5164198 11.4,86.4164198 7.7,84.9164198 C5.2,83.9164198 2.9,82.7164198 0.9,81.3164198 C3.1,97.8164198 21.8,107.41642 36.7,98.6164198 L60,84.9164198 L83.3,71.2164198 C90.3,67.1164198 94.1,60.3164198 94.9,53.3164198 C88.9,53.9164198 83.7,55.6164198 78.7,57.9164198 Z" id="Path" fill="url(#linearGradient-3)"></path>
            <path d="M3.4,16.0164198 C8.2,18.4164198 13.6,19.9164198 20.5,19.9164198 C22.3,19.9164198 24.2,19.8164198 26.2,19.5164198 L26.2,19.5164198 C30,19.0164198 33.4,17.9164198 36.7,16.2164198 C39.9,14.5164198 43,12.2164198 46.1,9.41641984 C46.2,9.31641984 46.3,9.21641984 46.4,9.11641984 L35.8,3.11641984 C22.6,-4.28358016 6.9,2.21641984 1.8,15.0164198 C2.3,15.4164198 2.9,15.7164198 3.4,16.0164198 Z" id="Path" fill="url(#linearGradient-4)"></path>
        </g>
    </g>
</svg>